<svg width="24" height="26" viewBox="0 0 24 26" fill="none" xmlns="http://www.w3.org/2000/svg">
<path d="M20.554 0H2.53034C1.1327 0 0 1.136 0 2.53665V22.9904C0 24.6528 1.34297 26 3.00137 26H20.554C21.9516 26 23.0843 24.864 23.0843 23.4633V2.53665C23.0843 1.136 21.9516 0 20.554 0ZM20.0002 21.5602C20.0002 22.2612 19.4339 22.8285 18.7358 22.8285H7.1144C7.10739 22.8285 7.10038 22.8285 7.09337 22.8285C6.13451 22.8355 4.93592 23.4324 4.36256 24.3502L3.16118 25.9986V4.35961C3.16118 3.65858 3.72753 3.09128 4.42565 3.09128H18.7344C19.4325 3.09128 19.9988 3.65858 19.9988 4.35961V21.5602H20.0002Z" fill="#34D3A3"/>
</svg>
