<?xml version="1.0" encoding="UTF-8"?>
<svg xmlns="http://www.w3.org/2000/svg" xmlns:xlink="http://www.w3.org/1999/xlink" width="15px" height="21px" viewBox="0 0 15 21" version="1.1">
<g id="surface1">
<path style=" stroke:none;fill-rule:nonzero;fill:rgb(20.392157%,82.745098%,63.921569%);fill-opacity:1;" d="M 6.09375 14.1875 L 6.09375 12.652344 C 6.09375 11.878906 6.238281 11.273438 6.53125 10.835938 C 6.824219 10.382812 7.335938 9.996094 8.074219 9.675781 L 8.792969 9.375 C 9.6875 9.003906 10.378906 8.566406 10.878906 8.0625 C 11.375 7.542969 11.621094 6.820312 11.621094 5.898438 C 11.621094 5.207031 11.441406 4.628906 11.082031 4.15625 C 10.722656 3.6875 10.234375 3.328125 9.617188 3.074219 C 9 2.824219 8.304688 2.695312 7.535156 2.695312 C 6.761719 2.695312 6.042969 2.832031 5.375 3.097656 C 4.722656 3.351562 4.191406 3.746094 3.78125 4.285156 C 3.386719 4.804688 3.1875 5.46875 3.1875 6.273438 L 3.1875 7.15625 L 1.105469 7.15625 L 1.105469 6.273438 C 1.105469 5.117188 1.378906 4.140625 1.929688 3.351562 C 2.496094 2.546875 3.257812 1.941406 4.21875 1.539062 C 5.195312 1.117188 6.300781 0.90625 7.535156 0.90625 C 8.75 0.90625 9.824219 1.125 10.75 1.5625 C 11.691406 1.980469 12.421875 2.570312 12.933594 3.328125 C 13.464844 4.066406 13.730469 4.921875 13.730469 5.898438 C 13.730469 6.855469 13.542969 7.652344 13.164062 8.289062 C 12.804688 8.914062 12.335938 9.433594 11.75 9.851562 C 11.167969 10.257812 10.527344 10.609375 9.824219 10.910156 L 9.128906 11.214844 C 8.804688 11.347656 8.570312 11.523438 8.433594 11.742188 C 8.296875 11.960938 8.230469 12.273438 8.230469 12.675781 L 8.230469 14.1875 Z M 7.199219 19.253906 C 6.6875 19.253906 6.265625 19.09375 5.941406 18.773438 C 5.613281 18.453125 5.453125 18.042969 5.453125 17.539062 C 5.453125 17.035156 5.613281 16.625 5.941406 16.304688 C 6.265625 15.984375 6.6875 15.824219 7.199219 15.824219 C 7.695312 15.824219 8.109375 15.984375 8.433594 16.304688 C 8.777344 16.625 8.949219 17.035156 8.949219 17.539062 C 8.949219 18.042969 8.777344 18.453125 8.433594 18.773438 C 8.109375 19.09375 7.695312 19.253906 7.199219 19.253906 Z M 7.199219 19.253906 "/>
</g>
</svg>
