<svg width="117" height="26" viewBox="0 0 117 26" fill="none" xmlns="http://www.w3.org/2000/svg">
<path fill-rule="evenodd" clip-rule="evenodd" d="M2.53034 0H20.554C21.9516 0 23.0843 1.136 23.0843 2.53665V23.4633C23.0843 24.864 21.9516 26 20.554 26H3.00137C1.34297 26 0 24.6528 0 22.9904V2.53665C0 1.136 1.1327 0 2.53034 0ZM18.7358 22.8285C19.4339 22.8285 20.0002 22.2612 20.0002 21.5602H19.9988V4.35961C19.9988 3.65858 19.4325 3.09128 18.7344 3.09128H4.42565C3.72753 3.09128 3.16118 3.65858 3.16118 4.35961V25.9986L4.36256 24.3502C4.93592 23.4324 6.13451 22.8355 7.09337 22.8285H7.1144H18.7358ZM46.2877 6.58237C46.6606 6.93288 47.1162 7.10744 47.6559 7.10744C48.2111 7.10744 48.6709 6.93288 49.0354 6.58237C49.3998 6.23326 49.5821 5.77154 49.5821 5.20002C49.5821 4.6285 49.3998 4.16818 49.0354 3.81767C48.6709 3.46716 48.1956 3.2926 47.6559 3.2926C47.1162 3.2926 46.6606 3.46856 46.2877 3.81767C45.9162 4.16678 45.7298 4.6285 45.7298 5.20002C45.7298 5.77154 45.9148 6.23326 46.2877 6.58237ZM46.1573 8.48979V20.3158H49.1531V8.48979H46.1573ZM36.2589 20.1018C36.8294 20.4678 37.6453 20.6508 38.7079 20.6508V20.6494C39.6597 20.6494 40.5387 20.4143 41.3476 19.9456C42.1564 19.4768 42.8055 18.7899 43.2976 17.8833C43.7882 16.9782 44.0349 15.8816 44.0349 14.5935V14.2121C44.0349 12.9254 43.7882 11.8288 43.2976 10.9223C42.8055 10.0172 42.1564 9.32879 41.3476 8.86003C40.5387 8.39127 39.6583 8.15619 38.7079 8.15619C37.9943 8.15619 37.3958 8.23924 36.9121 8.40676C36.4285 8.57427 36.0402 8.78542 35.7472 9.03881C35.4542 9.2936 35.2201 9.56388 35.0462 9.84964H34.6187V3.62625H31.6229V20.3158H34.571V18.8856H34.9986C35.2677 19.3304 35.6883 19.7358 36.2589 20.1018ZM40.1097 17.1344C39.4915 17.7299 38.7233 18.0283 37.8037 18.0283H37.8023C36.8827 18.0283 36.1145 17.7299 35.4962 17.1344C34.878 16.5376 34.5682 15.6676 34.5682 14.5232V14.2853C34.5682 13.1408 34.878 12.2709 35.4962 11.674C36.1145 11.0785 36.8673 10.7801 37.8023 10.7801C38.7373 10.7801 39.5097 11.0785 40.121 11.674C40.7308 12.2709 41.0364 13.1408 41.0364 14.2853V14.5232C41.0364 15.6676 40.728 16.5376 40.1097 17.1344ZM51.2767 14.4513V14.0698C51.2767 12.8297 51.522 11.7683 52.0141 10.887C52.5047 10.0044 53.1594 9.32873 53.9767 8.85997C54.7926 8.39121 55.6841 8.15613 56.6514 8.15613C57.7294 8.15613 58.5453 8.34757 59.1004 8.72906C59.6556 9.11054 60.0593 9.50751 60.313 9.92137H60.7406V8.49116H63.6901V22.416C63.6901 23.2268 63.4518 23.8744 62.9766 24.3586C62.5013 24.8429 61.8663 25.0864 61.0743 25.0864H53.1804V22.4639H60.0285C60.4729 22.4639 60.6944 22.226 60.6944 21.7488V18.673H60.2668C60.1084 18.9278 59.8869 19.1854 59.6009 19.4472C59.3163 19.709 58.935 19.9286 58.4598 20.1032C57.9846 20.2777 57.3818 20.365 56.6528 20.365C55.6855 20.365 54.794 20.1313 53.9781 19.6612C53.1608 19.1924 52.5075 18.5167 52.0155 17.6341C51.5234 16.7515 51.2781 15.6915 51.2781 14.4513H51.2767ZM57.5065 17.7411C58.4262 17.7411 59.1944 17.4469 59.8126 16.8585C60.4308 16.27 60.7392 15.4437 60.7392 14.3781V14.1402C60.7392 13.0591 60.4336 12.2286 59.8238 11.6486C59.2126 11.0686 58.4402 10.7787 57.5051 10.7787C56.5701 10.7787 55.8173 11.0686 55.1991 11.6486C54.5809 12.2286 54.2711 13.0591 54.2711 14.1402V14.3781C54.2711 15.4437 54.5809 16.27 55.1991 16.8585C55.8173 17.4469 56.5855 17.7411 57.5051 17.7411H57.5065ZM66.431 8.48979V20.3172H66.4324H69.4282V13.3308C69.4282 12.52 69.6132 11.8964 69.9861 11.4586C70.359 11.0208 70.8861 10.8026 71.5674 10.8026C72.1702 10.8026 72.6384 10.9659 72.9706 11.2911C73.3029 11.6177 73.4697 12.1061 73.4697 12.7579V20.3158H76.4655V13.3294C76.4655 12.5186 76.6519 11.895 77.0248 11.4572C77.3963 11.0194 77.9248 10.8012 78.6061 10.8012C79.2089 10.8012 79.6757 10.9645 80.0093 11.2897C80.3416 11.6163 80.5084 12.1047 80.5084 12.7565V20.3144H83.5042V12.5411C83.5042 11.5881 83.3247 10.797 82.9686 10.1692C82.6112 9.54133 82.1359 9.07257 81.5416 8.76288C80.9472 8.45319 80.2855 8.29834 79.5565 8.29834C78.6523 8.29834 77.9542 8.46585 77.4636 8.79948C76.9729 9.1331 76.5916 9.5554 76.3225 10.0636H75.8949C75.6257 9.53992 75.2374 9.1148 74.73 8.78822C74.2225 8.46304 73.5482 8.29975 72.7085 8.29975C71.9319 8.29975 71.3052 8.44615 70.83 8.74035C70.3534 9.03456 70.0127 9.38085 69.8067 9.77782H69.3791V8.48979H66.431ZM91.5817 20.6508C90.4084 20.6508 89.3738 20.4002 88.478 19.9005C87.5823 19.3993 86.8841 18.6927 86.3851 17.7777C85.886 16.8641 85.6365 15.7872 85.6365 14.547V14.2613C85.6365 13.0211 85.8818 11.9442 86.3739 11.0306C86.8645 10.117 87.5542 9.40897 88.443 8.90783C89.3304 8.4067 90.3607 8.15613 91.5341 8.15613C92.7074 8.15613 93.6985 8.41514 94.5537 8.93176C95.4102 9.44839 96.0761 10.1635 96.5513 11.0771C97.0265 11.9907 97.2649 13.0521 97.2649 14.2599V15.2847H88.6813C88.7135 16.0955 89.0135 16.7557 89.5841 17.2639C90.1547 17.772 90.8528 18.0268 91.6771 18.0268C92.5014 18.0268 93.135 17.8438 93.5317 17.4778C93.9285 17.1118 94.2284 16.7064 94.4359 16.2616L96.8849 17.5496C96.6621 17.9635 96.3424 18.4125 95.9219 18.8968C95.5013 19.3824 94.942 19.7949 94.2453 20.137C93.5471 20.479 92.6598 20.6494 91.5817 20.6494V20.6508ZM88.7051 13.045H94.2214C94.1583 12.3623 93.885 11.8133 93.4014 11.3994C92.9177 10.987 92.2869 10.7801 91.5103 10.7801C90.7336 10.7801 90.0593 10.987 89.5841 11.3994C89.1089 11.8133 88.8159 12.3609 88.7037 13.045H88.7051ZM99.4364 3.62622V20.3172H102.432V3.62622H99.4364ZM110.818 20.6508C109.645 20.6508 108.59 20.4129 107.655 19.9357C106.72 19.4585 105.983 18.7673 105.443 17.8608C104.905 16.9542 104.634 15.8661 104.634 14.595V14.2135C104.634 12.9423 104.904 11.8528 105.443 10.9476C105.982 10.0411 106.719 9.34991 107.655 8.8727C108.59 8.39549 109.645 8.15759 110.818 8.15759C111.991 8.15759 113.046 8.39549 113.981 8.8727C114.916 9.34991 115.653 10.0411 116.191 10.9476C116.73 11.8542 117 12.9423 117 14.2135V14.595C117 15.8661 116.731 16.9556 116.191 17.8608C115.653 18.7673 114.916 19.4585 113.981 19.9357C113.046 20.4129 111.991 20.6508 110.818 20.6508ZM110.818 17.9804C111.738 17.9804 112.497 17.682 113.1 17.0866C113.703 16.4897 114.003 15.6366 114.003 14.5232V14.2853C114.003 13.1732 113.706 12.3187 113.111 11.7219C112.517 11.1264 111.752 10.828 110.817 10.828C109.882 10.828 109.136 11.1264 108.534 11.7219C107.932 12.3187 107.63 13.1732 107.63 14.2853V14.5232C107.63 15.6366 107.932 16.4897 108.534 17.0866C109.137 17.682 109.898 17.9804 110.817 17.9804H110.818Z" fill="#34D3A3"/>
</svg>
