<svg width="20" height="21" viewBox="0 0 20 21" fill="none" xmlns="http://www.w3.org/2000/svg">
<path d="M19.3021 10.9826C19.3114 10.2659 18.9232 9.60717 18.2927 9.26142L3.60082 1.18928C2.94276 0.817369 2.16703 0.863061 1.54696 1.28648C0.915504 1.71703 0.592299 2.74198 0.768819 3.48224L2.14037 9.22851C2.28117 9.81775 2.80853 10.2326 3.41524 10.23L11.5912 10.2047C12.0099 10.1963 12.3495 10.5358 12.3411 10.9545C12.3398 11.3661 12.0052 11.7006 11.5866 11.709L3.40278 11.728C2.79608 11.7292 2.26614 12.146 2.12168 12.7361L0.701631 18.5052C0.529214 19.1869 0.725788 19.8675 1.20682 20.3486C1.26341 20.4052 1.32707 20.4688 1.39078 20.5183C2.01373 20.9989 2.82957 21.0602 3.52612 20.6891L18.2678 12.6959C18.9004 12.3605 19.2927 11.6993 19.3021 10.9826Z" fill="#34D3A3"/>
</svg>
